<?xml version="1.0"?>
<svg xmlns="http://www.w3.org/2000/svg" xmlns:xlink="http://www.w3.org/1999/xlink" width="1853" zoomAndPan="magnify" viewBox="49.5 632.2499717595 1389.75 240.7499892465" height="321" preserveAspectRatio="xMidYMid meet" version="1.0"><defs><g/><clipPath id="6a7331a504"><path d="M 239 659 L 375 659 L 375 854 L 239 854 Z M 239 659 " clip-rule="nonzero"/></clipPath><clipPath id="7529aabb61"><path d="M 339.984375 650.242188 L 384.492188 676.441406 L 274.6875 862.980469 L 230.183594 836.78125 Z M 339.984375 650.242188 " clip-rule="nonzero"/></clipPath><clipPath id="8faf68f5f6"><path d="M 362.238281 663.339844 C 368.140625 666.816406 372.417969 672.492188 374.136719 679.121094 C 375.851562 685.75 374.867188 692.792969 371.390625 698.691406 L 287.875 840.574219 C 284.402344 846.476562 278.726562 850.753906 272.097656 852.472656 C 265.46875 854.1875 258.425781 853.199219 252.523438 849.726562 C 246.625 846.253906 242.34375 840.578125 240.625 833.945312 C 238.910156 827.316406 239.898438 820.277344 243.371094 814.375 L 326.886719 672.496094 C 330.359375 666.59375 336.039062 662.3125 342.667969 660.597656 C 349.296875 658.878906 356.335938 659.867188 362.238281 663.339844 Z M 362.238281 663.339844 " clip-rule="nonzero"/></clipPath><clipPath id="e496b3861d"><path d="M 0 0 L 136 0 L 136 195 L 0 195 Z M 0 0 " clip-rule="nonzero"/></clipPath><clipPath id="f4ecb88cdb"><path d="M 100.984375 -8.757812 L 145.492188 17.441406 L 35.6875 203.980469 L -8.816406 177.78125 Z M 100.984375 -8.757812 " clip-rule="nonzero"/></clipPath><clipPath id="2087505931"><path d="M 123.238281 4.339844 C 129.140625 7.816406 133.417969 13.492188 135.136719 20.121094 C 136.851562 26.75 135.867188 33.792969 132.390625 39.691406 L 48.875 181.574219 C 45.402344 187.476562 39.726562 191.753906 33.097656 193.472656 C 26.46875 195.1875 19.425781 194.199219 13.523438 190.726562 C 7.625 187.253906 3.34375 181.578125 1.625 174.945312 C -0.0898438 168.316406 0.898438 161.277344 4.371094 155.375 L 87.886719 13.496094 C 91.359375 7.59375 97.039062 3.3125 103.667969 1.597656 C 110.296875 -0.121094 117.335938 0.867188 123.238281 4.339844 Z M 123.238281 4.339844 " clip-rule="nonzero"/></clipPath><clipPath id="c9c1e0a37a"><rect x="0" width="136" y="0" height="195"/></clipPath><clipPath id="2e7f3f6ef5"><path d="M 168.972656 663.726562 L 245.265625 663.726562 L 245.265625 740.015625 L 168.972656 740.015625 Z M 168.972656 663.726562 " clip-rule="nonzero"/></clipPath><clipPath id="2761e65f06"><path d="M 207.121094 663.726562 C 186.050781 663.726562 168.972656 680.804688 168.972656 701.871094 C 168.972656 722.9375 186.050781 740.015625 207.121094 740.015625 C 228.1875 740.015625 245.265625 722.9375 245.265625 701.871094 C 245.265625 680.804688 228.1875 663.726562 207.121094 663.726562 Z M 207.121094 663.726562 " clip-rule="nonzero"/></clipPath><clipPath id="0d9ba16de8"><path d="M 0.972656 0.726562 L 77.265625 0.726562 L 77.265625 77.015625 L 0.972656 77.015625 Z M 0.972656 0.726562 " clip-rule="nonzero"/></clipPath><clipPath id="79ef6bf1f2"><path d="M 39.121094 0.726562 C 18.050781 0.726562 0.972656 17.804688 0.972656 38.871094 C 0.972656 59.9375 18.050781 77.015625 39.121094 77.015625 C 60.1875 77.015625 77.265625 59.9375 77.265625 38.871094 C 77.265625 17.804688 60.1875 0.726562 39.121094 0.726562 Z M 39.121094 0.726562 " clip-rule="nonzero"/></clipPath><clipPath id="8c2d438803"><rect x="0" width="78" y="0" height="78"/></clipPath><clipPath id="39d459f86c"><path d="M 949 29 L 1029 29 L 1029 136.320312 L 949 136.320312 Z M 949 29 " clip-rule="nonzero"/></clipPath><clipPath id="5564691187"><rect x="0" width="1033" y="0" height="137"/></clipPath><clipPath id="e56a2f5796"><path d="M 63 647 L 197 647 L 197 846 L 63 846 Z M 63 647 " clip-rule="nonzero"/></clipPath><clipPath id="67f34b936c"><path d="M 53.054688 665.027344 L 105.160156 637.171875 L 207.21875 828.09375 L 155.113281 855.949219 Z M 53.054688 665.027344 " clip-rule="nonzero"/></clipPath><clipPath id="af3bc983d6"><path d="M 79.109375 651.101562 C 86.015625 647.40625 94.113281 646.609375 101.609375 648.882812 C 109.105469 651.15625 115.394531 656.316406 119.085938 663.226562 L 193.195312 801.855469 C 196.886719 808.765625 197.683594 816.859375 195.410156 824.359375 C 193.136719 831.855469 187.976562 838.144531 181.066406 841.835938 C 174.160156 845.53125 166.0625 846.328125 158.566406 844.054688 C 151.070312 841.78125 144.78125 836.621094 141.089844 829.710938 L 66.980469 691.082031 C 63.289062 684.171875 62.492188 676.078125 64.765625 668.578125 C 67.039062 661.082031 72.199219 654.792969 79.109375 651.101562 Z M 79.109375 651.101562 " clip-rule="nonzero"/></clipPath><clipPath id="ba2d827b94"><path d="M 0 0 L 134 0 L 134 199 L 0 199 Z M 0 0 " clip-rule="nonzero"/></clipPath><clipPath id="fd8f925520"><path d="M -9.945312 18.027344 L 42.160156 -9.828125 L 144.21875 181.09375 L 92.113281 208.949219 Z M -9.945312 18.027344 " clip-rule="nonzero"/></clipPath><clipPath id="46c60c8be6"><path d="M 16.109375 4.101562 C 23.015625 0.40625 31.113281 -0.390625 38.609375 1.882812 C 46.105469 4.15625 52.394531 9.316406 56.085938 16.226562 L 130.195312 154.855469 C 133.886719 161.765625 134.683594 169.859375 132.410156 177.359375 C 130.136719 184.855469 124.976562 191.144531 118.066406 194.835938 C 111.160156 198.53125 103.0625 199.328125 95.566406 197.054688 C 88.070312 194.78125 81.78125 189.621094 78.089844 182.710938 L 3.980469 44.082031 C 0.289062 37.171875 -0.507812 29.078125 1.765625 21.578125 C 4.039062 14.082031 9.199219 7.792969 16.109375 4.101562 Z M 16.109375 4.101562 " clip-rule="nonzero"/></clipPath><clipPath id="8d4919be90"><rect x="0" width="134" y="0" height="199"/></clipPath></defs><g clip-path="url(#6a7331a504)"><g clip-path="url(#7529aabb61)"><g clip-path="url(#8faf68f5f6)"><g transform="matrix(1, 0, 0, 1, 239, 659)"><g clip-path="url(#c9c1e0a37a)"><g clip-path="url(#e496b3861d)"><g clip-path="url(#f4ecb88cdb)"><g clip-path="url(#2087505931)"><path fill="#8c52ff" d="M 100.984375 -8.757812 L 145.492188 17.441406 L 35.789062 203.804688 L -8.714844 177.609375 Z M 100.984375 -8.757812 " fill-opacity="1" fill-rule="nonzero"/></g></g></g></g></g></g></g></g><g clip-path="url(#2e7f3f6ef5)"><g clip-path="url(#2761e65f06)"><g transform="matrix(1, 0, 0, 1, 168, 663)"><g clip-path="url(#8c2d438803)"><g clip-path="url(#0d9ba16de8)"><g clip-path="url(#79ef6bf1f2)"><path fill="#8c52ff" d="M 0.972656 0.726562 L 77.265625 0.726562 L 77.265625 77.015625 L 0.972656 77.015625 Z M 0.972656 0.726562 " fill-opacity="1" fill-rule="nonzero"/></g></g></g></g></g></g><g transform="matrix(1, 0, 0, 1, 399, 702)"><g clip-path="url(#5564691187)"><g fill="#d9d9d9" fill-opacity="1"><g transform="translate(0.303134, 107.554257)"><g><path d="M 48.875 0 L 35.984375 0 L 1.484375 -101.328125 L 15.5 -101.328125 L 41.28125 -23.546875 L 42.765625 -17.578125 L 43.0625 -17.578125 L 44.25 -23.6875 L 68.609375 -101.328125 L 82.546875 -101.328125 L 106.90625 -23.765625 L 108.25 -17.578125 L 108.46875 -17.578125 L 110.03125 -24.140625 L 135.734375 -101.328125 L 149.671875 -101.328125 L 115.25 0 L 102.296875 0 L 75.625 -83.0625 Z M 48.875 0 "/></g></g></g><g fill="#d9d9d9" fill-opacity="1"><g transform="translate(142.687003, 107.554257)"><g><path d="M 82.09375 -39.859375 C 82.09375 -39.210938 82.082031 -38.53125 82.0625 -37.8125 C 82.039062 -37.09375 81.976562 -36.035156 81.875 -34.640625 L 18.84375 -34.640625 C 19.394531 -29.578125 20.882812 -25.179688 23.3125 -21.453125 C 25.75 -17.734375 28.804688 -14.863281 32.484375 -12.84375 C 36.160156 -10.832031 40.082031 -9.828125 44.25 -9.828125 C 49.363281 -9.828125 53.734375 -10.929688 57.359375 -13.140625 C 60.984375 -15.359375 63.644531 -18.601562 65.34375 -22.875 L 79.71875 -22.875 C 78.625 -19.394531 76.992188 -16.140625 74.828125 -13.109375 C 72.671875 -10.078125 70.066406 -7.429688 67.015625 -5.171875 C 63.960938 -2.910156 60.535156 -1.132812 56.734375 0.15625 C 52.929688 1.445312 48.867188 2.09375 44.546875 2.09375 C 39.035156 2.09375 33.929688 1.0625 29.234375 -1 C 24.546875 -3.0625 20.453125 -5.929688 16.953125 -9.609375 C 13.453125 -13.285156 10.734375 -17.546875 8.796875 -22.390625 C 6.859375 -27.234375 5.890625 -32.4375 5.890625 -38 C 5.890625 -43.5625 6.859375 -48.765625 8.796875 -53.609375 C 10.734375 -58.453125 13.453125 -62.707031 16.953125 -66.375 C 20.453125 -70.050781 24.546875 -72.929688 29.234375 -75.015625 C 33.929688 -77.109375 39.035156 -78.15625 44.546875 -78.15625 C 50.015625 -78.15625 55.046875 -77.132812 59.640625 -75.09375 C 64.234375 -73.0625 68.207031 -70.253906 71.5625 -66.671875 C 74.914062 -63.097656 77.507812 -59.015625 79.34375 -54.421875 C 81.175781 -49.828125 82.09375 -44.972656 82.09375 -39.859375 Z M 19.4375 -45.96875 L 68.984375 -45.96875 C 68.785156 -48.644531 68.003906 -51.203125 66.640625 -53.640625 C 65.273438 -56.078125 63.472656 -58.222656 61.234375 -60.078125 C 59.003906 -61.941406 56.4375 -63.40625 53.53125 -64.46875 C 50.625 -65.539062 47.554688 -66.078125 44.328125 -66.078125 C 40.554688 -66.078125 36.957031 -65.304688 33.53125 -63.765625 C 30.101562 -62.234375 27.144531 -59.972656 24.65625 -56.984375 C 22.175781 -54.003906 20.4375 -50.332031 19.4375 -45.96875 Z M 19.4375 -45.96875 "/></g></g></g><g fill="#d9d9d9" fill-opacity="1"><g transform="translate(220.628856, 107.554257)"><g><path d="M 54.015625 2.15625 C 49.835938 2.15625 45.847656 1.410156 42.046875 -0.078125 C 38.253906 -1.566406 34.851562 -3.675781 31.84375 -6.40625 C 28.84375 -9.132812 26.421875 -12.390625 24.578125 -16.171875 L 24.578125 0 L 12.296875 0 L 12.296875 -104.890625 L 25.109375 -104.890625 L 25.109375 -70.40625 L 24.890625 -59.96875 C 26.578125 -63.394531 28.847656 -66.472656 31.703125 -69.203125 C 34.554688 -71.941406 37.867188 -74.101562 41.640625 -75.6875 C 45.421875 -77.28125 49.492188 -78.078125 53.859375 -78.078125 C 59.222656 -78.078125 64.175781 -77.046875 68.71875 -74.984375 C 73.269531 -72.921875 77.242188 -70.050781 80.640625 -66.375 C 84.046875 -62.707031 86.679688 -58.453125 88.546875 -53.609375 C 90.410156 -48.765625 91.34375 -43.5625 91.34375 -38 C 91.34375 -32.4375 90.394531 -27.21875 88.5 -22.34375 C 86.613281 -17.476562 83.984375 -13.207031 80.609375 -9.53125 C 77.234375 -5.851562 73.285156 -2.984375 68.765625 -0.921875 C 64.242188 1.128906 59.328125 2.15625 54.015625 2.15625 Z M 51.78125 -9.765625 C 55.457031 -9.765625 58.90625 -10.445312 62.125 -11.8125 C 65.351562 -13.175781 68.195312 -15.109375 70.65625 -17.609375 C 73.125 -20.117188 75.0625 -23.097656 76.46875 -26.546875 C 77.882812 -30.003906 78.59375 -33.820312 78.59375 -38 C 78.59375 -42.113281 77.894531 -45.882812 76.5 -49.3125 C 75.113281 -52.738281 73.191406 -55.707031 70.734375 -58.21875 C 68.273438 -60.726562 65.429688 -62.675781 62.203125 -64.0625 C 58.972656 -65.457031 55.5 -66.15625 51.78125 -66.15625 C 48.050781 -66.15625 44.570312 -65.429688 41.34375 -63.984375 C 38.113281 -62.546875 35.28125 -60.535156 32.84375 -57.953125 C 30.414062 -55.378906 28.503906 -52.390625 27.109375 -48.984375 C 25.722656 -45.578125 25.03125 -41.914062 25.03125 -38 C 25.03125 -33.976562 25.722656 -30.238281 27.109375 -26.78125 C 28.503906 -23.332031 30.441406 -20.335938 32.921875 -17.796875 C 35.410156 -15.265625 38.269531 -13.289062 41.5 -11.875 C 44.726562 -10.46875 48.15625 -9.765625 51.78125 -9.765625 Z M 51.78125 -9.765625 "/></g></g></g><g fill="#d9d9d9" fill-opacity="1"><g transform="translate(310.788617, 107.554257)"><g><path d="M 54.015625 2.15625 C 49.835938 2.15625 45.847656 1.410156 42.046875 -0.078125 C 38.253906 -1.566406 34.851562 -3.675781 31.84375 -6.40625 C 28.84375 -9.132812 26.421875 -12.390625 24.578125 -16.171875 L 24.578125 0 L 12.296875 0 L 12.296875 -104.890625 L 25.109375 -104.890625 L 25.109375 -70.40625 L 24.890625 -59.96875 C 26.578125 -63.394531 28.847656 -66.472656 31.703125 -69.203125 C 34.554688 -71.941406 37.867188 -74.101562 41.640625 -75.6875 C 45.421875 -77.28125 49.492188 -78.078125 53.859375 -78.078125 C 59.222656 -78.078125 64.175781 -77.046875 68.71875 -74.984375 C 73.269531 -72.921875 77.242188 -70.050781 80.640625 -66.375 C 84.046875 -62.707031 86.679688 -58.453125 88.546875 -53.609375 C 90.410156 -48.765625 91.34375 -43.5625 91.34375 -38 C 91.34375 -32.4375 90.394531 -27.21875 88.5 -22.34375 C 86.613281 -17.476562 83.984375 -13.207031 80.609375 -9.53125 C 77.234375 -5.851562 73.285156 -2.984375 68.765625 -0.921875 C 64.242188 1.128906 59.328125 2.15625 54.015625 2.15625 Z M 51.78125 -9.765625 C 55.457031 -9.765625 58.90625 -10.445312 62.125 -11.8125 C 65.351562 -13.175781 68.195312 -15.109375 70.65625 -17.609375 C 73.125 -20.117188 75.0625 -23.097656 76.46875 -26.546875 C 77.882812 -30.003906 78.59375 -33.820312 78.59375 -38 C 78.59375 -42.113281 77.894531 -45.882812 76.5 -49.3125 C 75.113281 -52.738281 73.191406 -55.707031 70.734375 -58.21875 C 68.273438 -60.726562 65.429688 -62.675781 62.203125 -64.0625 C 58.972656 -65.457031 55.5 -66.15625 51.78125 -66.15625 C 48.050781 -66.15625 44.570312 -65.429688 41.34375 -63.984375 C 38.113281 -62.546875 35.28125 -60.535156 32.84375 -57.953125 C 30.414062 -55.378906 28.503906 -52.390625 27.109375 -48.984375 C 25.722656 -45.578125 25.03125 -41.914062 25.03125 -38 C 25.03125 -33.976562 25.722656 -30.238281 27.109375 -26.78125 C 28.503906 -23.332031 30.441406 -20.335938 32.921875 -17.796875 C 35.410156 -15.265625 38.269531 -13.289062 41.5 -11.875 C 44.726562 -10.46875 48.15625 -9.765625 51.78125 -9.765625 Z M 51.78125 -9.765625 "/></g></g></g><g fill="#d9d9d9" fill-opacity="1"><g transform="translate(400.948393, 107.554257)"><g><path d="M 25.109375 0 L 12.296875 0 L 12.296875 -105.046875 L 25.109375 -105.046875 Z M 25.109375 0 "/></g></g></g><g fill="#d9d9d9" fill-opacity="1"><g transform="translate(429.497087, 107.554257)"><g><path d="M 16.3125 25.921875 L 3.796875 25.921875 L 3.796875 15.125 L 16.390625 15.125 C 19.472656 15.125 21.957031 14.578125 23.84375 13.484375 C 25.726562 12.390625 27.328125 10.710938 28.640625 8.453125 C 29.960938 6.191406 31.269531 3.347656 32.5625 -0.078125 L 33.375 -2.234375 L 3.203125 -75.984375 L 16.84375 -75.984375 L 38.375 -22.28125 L 40.15625 -15.578125 L 42.09375 -22.203125 L 63.46875 -75.921875 L 77.109375 -75.984375 L 47.15625 -2.09375 C 45.019531 3.269531 42.96875 7.753906 41 11.359375 C 39.039062 14.960938 36.941406 17.832031 34.703125 19.96875 C 32.472656 22.101562 29.878906 23.628906 26.921875 24.546875 C 23.972656 25.460938 20.4375 25.921875 16.3125 25.921875 Z M 16.3125 25.921875 "/></g></g></g><g fill="#d9d9d9" fill-opacity="1"><g transform="translate(498.722505, 107.554257)"><g/></g></g><g fill="#d9d9d9" fill-opacity="1"><g transform="translate(527.569254, 107.554257)"><g><path d="M 26.96875 0 L 13.78125 0 L 13.78125 -101.328125 L 26.96875 -101.328125 L 26.96875 -56.6875 L 85.53125 -56.6875 L 85.53125 -101.328125 L 98.78125 -101.328125 L 98.78125 0 L 85.53125 0 L 85.53125 -44.84375 L 26.96875 -44.84375 Z M 26.96875 0 "/></g></g></g><g fill="#d9d9d9" fill-opacity="1"><g transform="translate(631.287899, 107.554257)"><g><path d="M 45.375 2.15625 C 39.757812 2.15625 34.554688 1.128906 29.765625 -0.921875 C 24.972656 -2.984375 20.785156 -5.851562 17.203125 -9.53125 C 13.628906 -13.207031 10.847656 -17.476562 8.859375 -22.34375 C 6.878906 -27.21875 5.890625 -32.4375 5.890625 -38 C 5.890625 -43.5625 6.878906 -48.765625 8.859375 -53.609375 C 10.847656 -58.453125 13.617188 -62.707031 17.171875 -66.375 C 20.722656 -70.050781 24.894531 -72.929688 29.6875 -75.015625 C 34.476562 -77.109375 39.707031 -78.15625 45.375 -78.15625 C 51.03125 -78.15625 56.265625 -77.125 61.078125 -75.0625 C 65.898438 -73 70.097656 -70.128906 73.671875 -66.453125 C 77.253906 -62.773438 80.035156 -58.503906 82.015625 -53.640625 C 84.003906 -48.773438 85 -43.5625 85 -38 C 85 -32.4375 84.003906 -27.21875 82.015625 -22.34375 C 80.035156 -17.476562 77.253906 -13.207031 73.671875 -9.53125 C 70.097656 -5.851562 65.898438 -2.984375 61.078125 -0.921875 C 56.265625 1.128906 51.03125 2.15625 45.375 2.15625 Z M 45.515625 -9.90625 C 49.296875 -9.90625 52.800781 -10.597656 56.03125 -11.984375 C 59.257812 -13.378906 62.085938 -15.34375 64.515625 -17.875 C 66.953125 -20.414062 68.835938 -23.398438 70.171875 -26.828125 C 71.515625 -30.253906 72.1875 -33.976562 72.1875 -38 C 72.1875 -42.019531 71.515625 -45.726562 70.171875 -49.125 C 68.835938 -52.53125 66.953125 -55.5 64.515625 -58.03125 C 62.085938 -60.5625 59.257812 -62.535156 56.03125 -63.953125 C 52.800781 -65.367188 49.296875 -66.078125 45.515625 -66.078125 C 41.742188 -66.078125 38.226562 -65.367188 34.96875 -63.953125 C 31.71875 -62.535156 28.875 -60.5625 26.4375 -58.03125 C 24.007812 -55.5 22.113281 -52.53125 20.75 -49.125 C 19.382812 -45.726562 18.703125 -42.019531 18.703125 -38 C 18.703125 -33.976562 19.382812 -30.253906 20.75 -26.828125 C 22.113281 -23.398438 24.007812 -20.414062 26.4375 -17.875 C 28.875 -15.34375 31.71875 -13.378906 34.96875 -11.984375 C 38.226562 -10.597656 41.742188 -9.90625 45.515625 -9.90625 Z M 45.515625 -9.90625 "/></g></g></g><g fill="#d9d9d9" fill-opacity="1"><g transform="translate(713.327222, 107.554257)"><g><path d="M 37.625 2.15625 C 32.3125 2.15625 27.664062 1.445312 23.6875 0.03125 C 19.71875 -1.382812 16.414062 -3.296875 13.78125 -5.703125 C 11.144531 -8.109375 9.171875 -10.835938 7.859375 -13.890625 C 6.546875 -16.941406 5.890625 -20.082031 5.890625 -23.3125 L 18.25 -23.25 C 18.300781 -20.507812 19.082031 -18 20.59375 -15.71875 C 22.113281 -13.4375 24.3125 -11.625 27.1875 -10.28125 C 30.070312 -8.9375 33.597656 -8.265625 37.765625 -8.265625 C 43.535156 -8.265625 47.882812 -9.394531 50.8125 -11.65625 C 53.738281 -13.914062 55.203125 -16.957031 55.203125 -20.78125 C 55.203125 -23.613281 54.429688 -25.835938 52.890625 -27.453125 C 51.359375 -29.066406 49.160156 -30.304688 46.296875 -31.171875 C 43.441406 -32.046875 40.03125 -32.804688 36.0625 -33.453125 C 32.53125 -33.992188 29.160156 -34.75 25.953125 -35.71875 C 22.753906 -36.6875 19.910156 -38.015625 17.421875 -39.703125 C 14.941406 -41.390625 12.992188 -43.550781 11.578125 -46.1875 C 10.171875 -48.820312 9.46875 -52.050781 9.46875 -55.875 C 9.46875 -60.050781 10.472656 -63.8125 12.484375 -67.15625 C 14.492188 -70.507812 17.519531 -73.179688 21.5625 -75.171875 C 25.613281 -77.160156 30.644531 -78.15625 36.65625 -78.15625 C 42.519531 -78.15625 47.632812 -77.171875 52 -75.203125 C 56.375 -73.242188 59.773438 -70.550781 62.203125 -67.125 C 64.640625 -63.695312 65.859375 -59.773438 65.859375 -55.359375 L 53.265625 -55.359375 C 53.066406 -58.984375 51.515625 -61.898438 48.609375 -64.109375 C 45.703125 -66.316406 41.71875 -67.421875 36.65625 -67.421875 C 33.375 -67.421875 30.664062 -66.910156 28.53125 -65.890625 C 26.394531 -64.878906 24.789062 -63.515625 23.71875 -61.796875 C 22.65625 -60.085938 22.125 -58.210938 22.125 -56.171875 C 22.125 -53.785156 22.65625 -51.820312 23.71875 -50.28125 C 24.789062 -48.75 26.65625 -47.5 29.3125 -46.53125 C 31.96875 -45.5625 35.65625 -44.675781 40.375 -43.875 C 43.851562 -43.332031 47.253906 -42.625 50.578125 -41.75 C 53.910156 -40.882812 56.90625 -39.65625 59.5625 -38.0625 C 62.21875 -36.476562 64.328125 -34.34375 65.890625 -31.65625 C 67.460938 -28.976562 68.25 -25.578125 68.25 -21.453125 C 68.25 -16.285156 66.957031 -11.9375 64.375 -8.40625 C 61.789062 -4.882812 58.203125 -2.242188 53.609375 -0.484375 C 49.015625 1.273438 43.6875 2.15625 37.625 2.15625 Z M 37.625 2.15625 "/></g></g></g><g fill="#d9d9d9" fill-opacity="1"><g transform="translate(777.933703, 107.554257)"><g><path d="M 55.65625 0 L 41.640625 0 C 38.765625 0 35.910156 -0.367188 33.078125 -1.109375 C 30.242188 -1.859375 27.671875 -3.222656 25.359375 -5.203125 C 23.054688 -7.191406 21.207031 -10.035156 19.8125 -13.734375 C 18.425781 -17.441406 17.734375 -22.25 17.734375 -28.15625 L 17.734375 -64.734375 L 0.8125 -64.734375 L 0.8125 -75.984375 L 17.734375 -75.984375 L 17.734375 -98.5625 L 30.546875 -98.640625 L 30.546875 -75.984375 L 55.65625 -75.984375 L 55.65625 -64.734375 L 30.546875 -64.734375 L 30.546875 -27.5625 C 30.546875 -24.039062 30.929688 -21.171875 31.703125 -18.953125 C 32.472656 -16.742188 33.515625 -15.054688 34.828125 -13.890625 C 36.140625 -12.722656 37.601562 -11.925781 39.21875 -11.5 C 40.832031 -11.082031 42.484375 -10.875 44.171875 -10.875 L 55.65625 -10.875 Z M 55.65625 0 "/></g></g></g><g fill="#d9d9d9" fill-opacity="1"><g transform="translate(828.981201, 107.554257)"><g><path d="M 18.625 -90.8125 C 15.988281 -90.8125 13.890625 -91.601562 12.328125 -93.1875 C 10.765625 -94.78125 9.984375 -96.722656 9.984375 -99.015625 C 9.984375 -101.242188 10.765625 -103.148438 12.328125 -104.734375 C 13.890625 -106.328125 16.015625 -107.125 18.703125 -107.125 C 21.429688 -107.125 23.578125 -106.328125 25.140625 -104.734375 C 26.703125 -103.148438 27.484375 -101.242188 27.484375 -99.015625 C 27.484375 -96.722656 26.703125 -94.78125 25.140625 -93.1875 C 23.578125 -91.601562 21.40625 -90.8125 18.625 -90.8125 Z M 25.109375 0 L 12.296875 0 L 12.296875 -75.984375 L 25.109375 -75.984375 Z M 25.109375 0 "/></g></g></g><g fill="#d9d9d9" fill-opacity="1"><g transform="translate(857.529952, 107.554257)"><g><path d="M 25.109375 0 L 12.296875 0 L 12.296875 -75.984375 L 24.578125 -75.984375 L 24.578125 -61.3125 C 26.023438 -64.59375 28.125 -67.5 30.875 -70.03125 C 33.632812 -72.5625 36.875 -74.546875 40.59375 -75.984375 C 44.320312 -77.429688 48.320312 -78.15625 52.59375 -78.15625 C 62.675781 -78.15625 70.320312 -75.035156 75.53125 -68.796875 C 80.75 -62.566406 83.359375 -53.367188 83.359375 -41.203125 L 83.359375 0 L 70.546875 0 L 70.546875 -40.96875 C 70.546875 -49.71875 68.660156 -56.101562 64.890625 -60.125 C 61.117188 -64.144531 55.925781 -66.15625 49.3125 -66.15625 C 46.132812 -66.15625 43.09375 -65.554688 40.1875 -64.359375 C 37.28125 -63.171875 34.695312 -61.4375 32.4375 -59.15625 C 30.1875 -56.875 28.398438 -54.117188 27.078125 -50.890625 C 25.765625 -47.660156 25.109375 -44.007812 25.109375 -39.9375 Z M 25.109375 0 "/></g></g></g><g clip-path="url(#39d459f86c)"><g fill="#d9d9d9" fill-opacity="1"><g transform="translate(943.443245, 107.554257)"><g><path d="M 45.59375 28.609375 C 39.1875 28.609375 33.722656 27.800781 29.203125 26.1875 C 24.679688 24.570312 20.96875 22.410156 18.0625 19.703125 C 15.15625 16.992188 12.984375 13.972656 11.546875 10.640625 C 10.109375 7.316406 9.289062 3.921875 9.09375 0.453125 L 21.234375 0.453125 C 21.734375 3.472656 22.835938 6.300781 24.546875 8.9375 C 26.265625 11.570312 28.820312 13.679688 32.21875 15.265625 C 35.625 16.859375 40.082031 17.65625 45.59375 17.65625 C 50.507812 17.65625 54.691406 16.894531 58.140625 15.375 C 61.597656 13.863281 64.394531 11.804688 66.53125 9.203125 C 68.664062 6.597656 70.226562 3.65625 71.21875 0.375 C 72.21875 -2.90625 72.71875 -6.304688 72.71875 -9.828125 L 72.71875 -19.21875 C 70.925781 -15.394531 68.539062 -12.15625 65.5625 -9.5 C 62.582031 -6.84375 59.191406 -4.832031 55.390625 -3.46875 C 51.585938 -2.101562 47.523438 -1.421875 43.203125 -1.421875 C 37.847656 -1.421875 32.910156 -2.398438 28.390625 -4.359375 C 23.867188 -6.316406 19.914062 -9.046875 16.53125 -12.546875 C 13.15625 -16.054688 10.535156 -20.109375 8.671875 -24.703125 C 6.816406 -29.296875 5.890625 -34.195312 5.890625 -39.40625 C 5.890625 -44.625 6.804688 -49.554688 8.640625 -54.203125 C 10.484375 -58.847656 13.078125 -62.957031 16.421875 -66.53125 C 19.773438 -70.101562 23.695312 -72.921875 28.1875 -74.984375 C 32.6875 -77.046875 37.570312 -78.078125 42.84375 -78.078125 C 47.707031 -78.078125 52.097656 -77.242188 56.015625 -75.578125 C 59.941406 -73.910156 63.332031 -71.6875 66.1875 -68.90625 C 69.050781 -66.125 71.226562 -63.046875 72.71875 -59.671875 L 72.71875 -75.984375 L 85 -75.984375 L 85 -10.203125 C 85 -4.941406 84.191406 0.03125 82.578125 4.71875 C 80.960938 9.414062 78.53125 13.550781 75.28125 17.125 C 72.03125 20.707031 67.929688 23.515625 62.984375 25.546875 C 58.046875 27.585938 52.25 28.609375 45.59375 28.609375 Z M 45.453125 -12.734375 C 49.171875 -12.734375 52.65625 -13.425781 55.90625 -14.8125 C 59.164062 -16.207031 62.007812 -18.132812 64.4375 -20.59375 C 66.875 -23.050781 68.785156 -25.894531 70.171875 -29.125 C 71.566406 -32.351562 72.265625 -35.78125 72.265625 -39.40625 C 72.265625 -43.03125 71.582031 -46.441406 70.21875 -49.640625 C 68.851562 -52.847656 66.941406 -55.679688 64.484375 -58.140625 C 62.023438 -60.597656 59.179688 -62.535156 55.953125 -63.953125 C 52.722656 -65.367188 49.242188 -66.078125 45.515625 -66.078125 C 41.796875 -66.078125 38.304688 -65.40625 35.046875 -64.0625 C 31.796875 -62.726562 28.941406 -60.851562 26.484375 -58.4375 C 24.023438 -56.03125 22.097656 -53.210938 20.703125 -49.984375 C 19.316406 -46.753906 18.625 -43.226562 18.625 -39.40625 C 18.625 -35.632812 19.316406 -32.132812 20.703125 -28.90625 C 22.097656 -25.675781 24.007812 -22.84375 26.4375 -20.40625 C 28.875 -17.976562 31.71875 -16.09375 34.96875 -14.75 C 38.226562 -13.40625 41.722656 -12.734375 45.453125 -12.734375 Z M 45.453125 -12.734375 "/></g></g></g></g></g></g><g clip-path="url(#e56a2f5796)"><g clip-path="url(#67f34b936c)"><g clip-path="url(#af3bc983d6)"><g transform="matrix(1, 0, 0, 1, 63, 647)"><g clip-path="url(#8d4919be90)"><g clip-path="url(#ba2d827b94)"><g clip-path="url(#fd8f925520)"><g clip-path="url(#46c60c8be6)"><path fill="#8c52ff" d="M -9.945312 18.027344 L 42.160156 -9.828125 L 144.109375 180.890625 L 92.003906 208.746094 Z M -9.945312 18.027344 " fill-opacity="1" fill-rule="nonzero"/></g></g></g></g></g></g></g></g></svg>
